<?xml version="1.0" encoding="UTF-8"?>
<svg width="512" height="512" viewBox="-120 -120 1320 1320" xmlns="http://www.w3.org/2000/svg">
	<defs>
		<style>
			#almodon {
				transform: rotate(8deg);
				transform-origin: 50% 50%;
			}
			
			.egg {
				fill: #ffffff;
				stroke: #ffffff;
				stroke-miterlimit: 10;
				stroke-width: 20px;
			}

			.spot, .nostril {
				fill: #5d6dce;
			}

			.eye, .mouth {
				fill: #5d6dce;
				stroke: #5d6dce;
				stroke-miterlimit: 10;
				stroke-width: 12px;
			}

			.scale, .face, .nose, .tongue, .teeth {
				fill: #ffffff;
				stroke: #5d6dce;
				stroke-linecap: round;
				stroke-width: 12px;
			}
		</style>
	</defs>
	<rect fill="#ffffff" x="-120" y="-120" width="1320" height="1320" rx="120" ry="120" />
	<g>
		<circle fill="#5d6dce" cx="540" cy="540" r="540" />
		<g id="almodon">
			<path class="egg" d="M957.4,623.9c-23.2,210-201.2,373.3-417.4,373.3s-391.2-163.3-417.4-373.2l194.5,103.9,111.2-52.9,111.7,62.5,111.7-62.5,111.1,52.9,194.6-104Z" />
			<path class="spot" d="M472.2,878.9c0,41.9-21.3,78.8-53.7,100.5-72.5-21.9-136.8-62.8-186.9-117,8.1-58.9,58.6-104.3,119.7-104.3,66.8,0,120.9,54.1,120.9,120.8Z" />
			<path class="spot" d="M885.6,680.7c0,91.5-74.2,165.6-165.6,165.6-75.8,0-139.7-50.9-159.4-120.4l91.1-51,111.1,52.9,121.8-65c.7,5.9,1,11.9,1,17.9Z" />
			<path class="face" d="M823.3,592.8c-20.4,15.7-42.5,18.5-56.4,18.7,3.8,2.4,8.9,5.1,15.2,7,9.9,2.9,18.4,2.6,23.9,1.9,3.1,16.1,6.2,32.2,9.3,48.3-18.3,12.2-36.6,24.5-54.8,36.7l-110.6-53.3-109.9,59.8-109.8-59.8-110.6,53.3c-18.3-12.2-36.6-24.5-54.8-36.7,3.1-16.1,6.2-32.2,9.3-48.3,5.6.7,14.1,1,23.9-1.9,6.3-1.9,11.4-4.5,15.2-7-14-.2-36.1-3-56.4-18.7-51-39.2-65.2-139.1-28.2-177,6.1-6.3,20.6-18,50-17.3.2-25.1,4-89.4,44.9-146.8,56.2-78.9,142.5-88.5,187.4-87.4,1.8,14.5,14.2,25.7,29.2,25.7s27.4-11.2,29.2-25.7c44.9-1.1,131.2,8.5,187.4,87.4,40.9,57.4,44.6,121.7,44.9,146.8,29.4-.7,43.9,11,50,17.3,36.9,38,22.7,137.8-28.3,177Z" />
			<path class="eye" d="M740.1,348.7c-10.3-7.7-30.2-20.4-58.5-25.9-31.7-6.2-57.4-.2-70,3.6,5.5-4.4,11.1-8.7,16.6-13.1-7.7-2.3-15.5-4.5-23.2-6.8,14-4.5,41.8-11.4,76.4-5.8,36.7,5.9,62.1,22.8,73.8,31.8-8-.9-16-1.8-24.1-2.7,3.1,6.3,6,12.6,9,18.9Z" />
			<path class="eye" d="M339.9,348.7c10.3-7.7,30.2-20.4,58.5-25.9,31.7-6.2,57.4-.2,70,3.6-5.5-4.4-11.1-8.7-16.6-13.1,7.7-2.3,15.5-4.5,23.2-6.8-14-4.5-41.8-11.4-76.4-5.8-36.7,5.9-62.1,22.8-73.8,31.8,8-.9,16-1.8,24.1-2.7-3.1,6.3-6,12.6-9,18.9Z" />
			<path class="scale" d="M569.5,178.6c0,1.3-.1,2.5-.2,3.7-1.8,14.5-14.2,25.7-29.2,25.7s-27.4-11.2-29.2-25.7c-.2-1.2-.2-2.5-.2-3.7,0-43.2,13.2-78.2,29.5-78.2s29.3,35,29.3,78.2Z" />
			<path class="nose" d="M456.1,411.5c5.4-8.3,17.4-24.3,38.8-36,18.4-10,35.4-12.3,45-12.9,9.6.6,26.6,2.9,45,12.9,21.4,11.7,33.4,27.7,38.8,36" />
			<path class="nostril" d="M516.9,423.3c1.5,5.7-2,11.4-7.6,12.9-14.4,3.7-27.3,2.1-28.7-3.6s9.1-13.2,23.5-16.9c5.6-1.5,11.3,1.9,12.8,7.6Z" />
			<path class="nostril" d="M563.1,423.3c-1.5,5.7,2,11.4,7.6,12.9,14.4,3.7,27.3,2.1,28.7-3.6,1.5-5.7-9.1-13.2-23.5-16.9-5.6-1.5-11.3,1.9-12.8,7.6Z" />
			<path class="mouth" d="M808.6,487.7c0,39.1-36.9,74.2-94.9,97.7-4.7-26.6-14.9-45.1-26.7-45.1-7.5,0-14.3,7.4-19.5,19.7-4.7,11-8,25.9-9.3,42.7-12.4,2.9-25.3,5.3-38.7,7.3-17.7,2.6-36.1,4.4-55.1,5.2c-8,.3-16.1.5-24.3.5s-16.3-.2-24.3-.5c-19-.8-37.5-2.6-55.1-5.2-13.4-2-26.3-4.4-38.7-7.3-1.3-16.8-4.6-31.7-9.3-42.7-5.2-12.3-12-19.7-19.5-19.7-11.8,0-22,18.5-26.7,45.1-58.1-23.5-94.9-58.5-94.9-97.7,0-13.5,4.4-26.4,12.5-38.6,21.3,6,43.8,11.3,67.5,15.8,15.7,3,31.9,5.6,48.5,7.9,6.8.9,13.6,1.8,20.6,2.6,17.5,2,35.4,3.5,53.7,4.6,10.6.6,21.4,1.1,32.2,1.5,5.8,16.2,18.7,27.4,33.6,27.4s27.8-11.2,33.6-27.4c10.9-.3,21.6-.8,32.2-1.5,18.3-1.1,36.2-2.7,53.7-4.6,6.9-.8,13.8-1.6,20.6-2.6,16.6-2.2,32.8-4.9,48.5-7.9c23.6-4.5,46.2-9.8,67.5-15.8,7.9,12.1,12.3,25.1,12.3,38.6Z" />
			<path class="tongue" d="M667.4,560c-4.7,11-8,25.9-9.3,42.7-12.4,2.9-25.3,5.3-38.7,7.3-17.7,2.6-36.1,4.4-55.1,5.2c-8,.3-16.1.5-24.3.5s-16.3-.2-24.3-.5c-19-.8-37.5-2.6-55.1-5.2-13.4-2-26.3-4.4-38.7-7.3-1.3-16.8-4.6-31.7-9.3-42.7,18.1-21.5,49.4-35.7,85.1-35.7,15.1,0,29.5,2.6,42.3,7.1,12.9-4.6,27.2-7.1,42.3-7.1,35.7,0,67,14.2,85.1,35.7Z" />
			<path class="teeth" d="M515.7,615.2c-19-.8-37.5-2.6-55.1-5.2,4.4-28.3,14.9-48.2,27.2-48.2,13,0,24,22.4,27.9,53.4Z" />
			<path class="teeth" d="M619.4,610c-17.7,2.6-36.1,4.4-55.1,5.2,3.9-31,14.9-53.3,27.9-53.3,12.3-.1,22.8,19.8,27.2,48.1Z" />
			<path class="teeth" d="M421.9,602.7c-8.7-2-17.2-4.3-25.3-6.8-10.6-3.2-20.7-6.7-30.2-10.6,4.7-26.6,14.9-45.1,26.7-45.1,7.5,0,14.3,7.4,19.5,19.7,4.7,11.1,8,25.9,9.3,42.8Z" />
			<path class="teeth" d="M713.6,585.3c-18,7.3-36.6,12.9-55.5,17.3,1.8-53.7,38.4-99.7,55.5-17.3Z" />
			<path class="teeth" d="M474.1,479.9c-4.8,25.9-14.8,43.8-26.4,43.8-12.3,0-22.8-20-27.2-48.4,17.4,2,35.3,3.5,53.6,4.6Z" />
			<path class="teeth" d="M399.9,472.7c-5.4,18.3-13.8,30.1-23.2,30.1-10.7,0-20.1-15.2-25.3-38,15.7,3,31.9,5.7,48.5,7.9Z" />
			<path class="teeth" d="M728.6,464.8c-5.1,22.8-14.5,38-25.3,38-9.4,0-17.8-11.8-23.2-30.1,16.6-2.2,32.8-4.9,48.5-7.9Z" />
		</g>
	</g>
</svg>